<mxfile host="app.diagrams.net" modified="2023-02-21T21:31:02.473Z" agent="5.0 (X11; Ubuntu)" etag="cttPW6Sb_Ibuxp4QzHSq" version="20.8.20" type="github">
  <diagram id="R2lEEEUBdFMjLlhIrx00" name="Page-1">
    <mxGraphModel dx="1360" dy="765" grid="1" gridSize="10" guides="1" tooltips="1" connect="1" arrows="1" fold="1" page="1" pageScale="1" pageWidth="850" pageHeight="1100" math="0" shadow="0" extFonts="Permanent Marker^https://fonts.googleapis.com/css?family=Permanent+Marker">
      <root>
        <mxCell id="0" />
        <mxCell id="1" parent="0" />
        <mxCell id="WKoIMvi9p1BWzZwJWIoY-1" value="&lt;p style=&quot;margin:0px;margin-top:4px;text-align:center;&quot;&gt;&lt;i&gt;&amp;lt;&amp;lt;Interface&amp;gt;&amp;gt;&lt;/i&gt;&lt;br&gt;&lt;b&gt;Menu&lt;/b&gt;&lt;br&gt;&lt;/p&gt;&lt;hr size=&quot;1&quot;&gt;&lt;hr size=&quot;1&quot;&gt;&lt;p style=&quot;margin:0px;margin-left:4px;&quot;&gt;+ bot(input(int))&lt;br&gt;+ main&lt;br&gt;&lt;/p&gt;" style="verticalAlign=top;align=left;overflow=fill;fontSize=12;fontFamily=Helvetica;html=1;" parent="1" vertex="1">
          <mxGeometry x="354" y="40" width="140" height="90" as="geometry" />
        </mxCell>
        <mxCell id="H_HPHrMYtquP8e00F-l--1" value="Address_book" style="html=1;dropTarget=0;dashed=1;fillColor=#dae8fc;strokeColor=#6c8ebf;" vertex="1" parent="1">
          <mxGeometry x="10" y="160" width="270" height="500" as="geometry" />
        </mxCell>
        <mxCell id="H_HPHrMYtquP8e00F-l--3" value="Notebook" style="html=1;dropTarget=0;dashed=1;fillColor=#fff2cc;strokeColor=#d6b656;" vertex="1" parent="1">
          <mxGeometry x="330" y="160" width="180" height="90" as="geometry" />
        </mxCell>
        <mxCell id="H_HPHrMYtquP8e00F-l--5" value="Sorter" style="html=1;dropTarget=0;dashed=1;fillColor=#f5f5f5;fontColor=#333333;strokeColor=#666666;" vertex="1" parent="1">
          <mxGeometry x="620" y="160" width="180" height="90" as="geometry" />
        </mxCell>
        <mxCell id="H_HPHrMYtquP8e00F-l--7" value="" style="endArrow=none;html=1;rounded=0;exitX=0.5;exitY=0;exitDx=0;exitDy=0;" edge="1" parent="1" source="H_HPHrMYtquP8e00F-l--3">
          <mxGeometry width="50" height="50" relative="1" as="geometry">
            <mxPoint x="375" y="180" as="sourcePoint" />
            <mxPoint x="425" y="130" as="targetPoint" />
          </mxGeometry>
        </mxCell>
        <mxCell id="H_HPHrMYtquP8e00F-l--8" value="" style="endArrow=none;html=1;rounded=0;" edge="1" parent="1" target="WKoIMvi9p1BWzZwJWIoY-1">
          <mxGeometry width="50" height="50" relative="1" as="geometry">
            <mxPoint x="80" y="160" as="sourcePoint" />
            <mxPoint x="320" y="110" as="targetPoint" />
          </mxGeometry>
        </mxCell>
        <mxCell id="H_HPHrMYtquP8e00F-l--9" value="" style="endArrow=none;html=1;rounded=0;entryX=0.75;entryY=0;entryDx=0;entryDy=0;" edge="1" parent="1" target="H_HPHrMYtquP8e00F-l--5">
          <mxGeometry width="50" height="50" relative="1" as="geometry">
            <mxPoint x="494" y="100" as="sourcePoint" />
            <mxPoint x="768" y="40" as="targetPoint" />
          </mxGeometry>
        </mxCell>
      </root>
    </mxGraphModel>
  </diagram>
</mxfile>
